<svg width="455" height="455" viewBox="0 0 455 455" fill="none" xmlns="http://www.w3.org/2000/svg">
<rect width="455" height="455" rx="227.5" fill="#A9A9A9"/>
<path d="M265.219 163.37H324.445V177.739H265.219V163.37ZM205.873 220.222C218.966 213.958 225.823 204.428 225.823 189.703C225.823 160.58 204.152 153.514 179.125 153.514H110.25V299.695H181.055C207.595 299.695 232.503 286.93 232.503 257.242C232.503 238.895 223.834 225.328 205.873 220.222V220.222ZM142.372 178.452H172.505C184.113 178.452 194.533 181.687 194.533 195.166C194.533 207.575 186.428 212.562 174.939 212.562H142.372V178.452ZM176.661 274.877H142.342V234.62H177.344C191.475 234.62 200.411 240.528 200.411 255.491C200.411 270.216 189.753 274.877 176.661 274.877V274.877ZM347.602 248.306C347.602 216.986 329.284 190.891 296.153 190.891C263.942 190.891 242.033 215.145 242.033 246.941C242.033 279.894 262.784 302.516 296.153 302.516C321.417 302.516 337.775 291.145 345.642 266.891H320.022C317.231 275.945 305.891 280.695 297.073 280.695C280.033 280.695 271.127 270.72 271.127 253.769H347.394C347.483 252.017 347.602 250.177 347.602 248.306V248.306ZM271.127 235.422C272.047 221.498 281.339 212.8 295.233 212.8C309.839 212.8 317.142 221.38 318.419 235.422H271.127Z" fill="white"/>
</svg>
