<svg width="455" height="455" viewBox="0 0 455 455" fill="none" xmlns="http://www.w3.org/2000/svg">
<rect width="455" height="455" rx="227.5" fill="white"/>
<path d="M227.5 455C101.852 455 0 353.148 0 227.5C0 101.852 101.852 0 227.5 0C353.148 0 455 101.852 455 227.5C455 353.148 353.148 455 227.5 455ZM227.5 106.167C156.3 106.167 98.5833 163.883 98.5833 235.083C98.5833 306.283 156.3 364 227.5 364C298.7 364 356.417 306.283 356.417 235.083C356.417 163.883 298.7 106.167 227.5 106.167ZM270.475 336.472C256.88 342.232 242.265 345.198 227.5 345.193C201.315 345.193 177.928 336.806 157.331 320.017L159.849 321.867C163.77 313.252 169.533 304.971 177.139 297.024C184.753 289.077 192.078 282.669 199.131 277.8C206.504 272.739 214.186 268.142 222.131 264.036C230.412 259.729 236.062 256.984 239.08 255.816C242.105 254.641 244.509 253.716 246.299 253.041L246.633 252.874H246.974C257.94 281.637 265.773 309.499 270.475 336.472V336.472ZM239.421 234.583C238.966 234.81 238.246 235.053 237.237 235.341L235.053 235.925L228.842 238.101C224.596 239.671 219.022 242.356 212.144 246.163C205.258 249.969 197.963 254.504 190.228 259.76C182.516 265.015 174.538 271.984 166.318 280.659C158.277 289.08 151.313 298.467 145.585 308.604C136.656 298.683 129.602 287.223 124.769 274.782C119.836 262.131 117.332 248.662 117.39 235.083C117.39 233.514 117.451 232.338 117.557 231.557C158.067 231.557 195.726 226.355 230.526 215.951C234.113 222.882 237.078 229.1 239.429 234.583H239.421ZM221.456 198.994C187.437 207.943 153.532 212.417 119.733 212.417C123.218 195.726 130.577 180.089 141.217 166.765C151.695 153.436 165.148 142.743 180.498 135.544C194.376 154.01 208.026 175.16 221.456 198.994V198.994ZM336.268 252.54C333.897 267.528 328.41 281.853 320.161 294.59C312.082 307.197 301.515 318.022 289.107 326.402C284.519 300.664 277.353 274.418 267.616 247.672C289.888 244.206 312.775 245.829 336.275 252.54H336.268ZM201.588 127.559C201.33 127.559 201.072 127.809 200.814 128.318C201.072 127.809 201.33 127.559 201.588 127.559ZM300.194 152.493L298.093 155.436C297.259 156.611 295.158 158.878 291.799 162.23C288.354 165.665 284.68 168.862 280.803 171.8C276.83 174.819 271.43 178.261 264.605 182.121C257.78 185.989 250.5 189.371 242.78 192.283C229.912 168.555 216.148 147.177 201.489 128.158C210.003 126.074 218.734 125.004 227.5 124.973C255.255 124.973 279.484 134.149 300.186 152.501L300.194 152.493ZM337.625 233.908L335.942 233.574C334.827 233.347 333.424 233.097 331.748 232.816L325.621 231.807C323.217 231.421 320.532 231.049 317.567 230.715C314.41 230.363 311.247 230.057 308.081 229.798C300.654 229.189 293.206 228.88 285.755 228.873C281.835 228.873 277.724 228.986 273.417 229.206C269.11 229.434 264.939 229.821 260.905 230.382C260.419 229.492 260 228.567 259.653 227.614C259.266 226.644 258.902 225.666 258.561 224.679C256.438 219.977 253.973 214.661 251.175 208.731C258.78 205.653 266.155 202.034 273.243 197.902C280.242 193.815 285.839 190.182 290.032 186.99C294.233 183.805 298.207 180.415 301.953 176.836C305.699 173.256 308.134 170.769 309.256 169.366C310.378 167.971 311.44 166.598 312.441 165.256L312.615 165.089C328.95 185.003 337.292 207.943 337.625 233.908Z" fill="#A9A9A9"/>
</svg>
