<svg width="455" height="455" viewBox="0 0 455 455" fill="none" xmlns="http://www.w3.org/2000/svg">
<rect width="455" height="455" rx="227.5" fill="#F3F3F3"/>
<g clip-path="url(#clip0_4_35)">
<path d="M0 227.5C0 287.837 23.9687 345.702 66.6332 388.367C109.298 431.031 167.163 455 227.5 455C287.837 455 345.702 431.031 388.367 388.367C431.031 345.702 455 287.837 455 227.5C455 167.163 431.031 109.298 388.367 66.6332C345.702 23.9687 287.837 0 227.5 0C167.163 0 109.298 23.9687 66.6332 66.6332C23.9687 109.298 0 167.163 0 227.5H0Z" fill="#A9A9A9"/>
<path d="M346.71 216.58H358.313C360.133 199.29 359.223 198.38 346.71 200.427V216.58ZM363.318 265.265H386.978C386.978 257.985 387.205 251.387 386.978 244.79C386.75 240.467 383.793 237.965 378.788 237.965C368.323 237.737 357.858 237.965 346.71 237.965V283.01H322.368V237.965H298.025V217.035H321.685V200.2C316.68 199.972 311.448 199.745 306.215 199.517V178.815H321.685C322.14 176.312 322.368 174.265 322.823 171.99H346.028C346.483 174.037 346.71 175.857 347.165 178.36C358.768 178.36 371.963 178.587 377.65 188.37C382.428 196.56 382.883 206.797 385.385 216.807C385.613 216.807 387.66 216.807 389.48 217.035C402.448 218.172 410.638 225.225 411.32 236.372C411.775 246.155 411.775 255.71 411.32 265.492C410.638 277.095 401.083 283.465 386.068 283.237C371.735 283.01 364 276.867 363.318 265.265V265.265ZM274.365 262.307H297.57V282.782H212.94C217.035 275.73 220.903 269.132 224.998 262.08H248.658V199.745H233.87V179.042H289.153V199.517H274.365V262.307V262.307ZM192.238 221.13C186.55 220.675 181.773 220.675 177.223 219.765C171.08 218.855 168.578 214.987 171.08 210.21C177.678 197.925 184.503 185.867 191.328 173.582C192.01 172.445 194.513 171.762 196.105 171.762C202.475 171.535 208.618 171.762 216.125 171.762C210.438 182 204.978 191.782 199.518 201.565L201.11 202.702C209.3 197.015 218.628 200.882 229.093 199.29C221.585 212.485 214.76 224.542 207.253 237.51C213.168 237.965 217.263 237.965 222.495 238.42C219.538 243.88 216.58 248.885 213.395 253.89C212.94 254.8 210.893 255.482 209.755 255.482C202.248 255.482 194.74 255.937 187.233 255.255C179.043 254.572 176.313 250.477 179.498 243.88C183.365 236.372 187.688 229.092 192.238 221.13V221.13ZM91.455 171.99H115.57C115.798 172.9 116.025 174.037 116.025 174.947V263.9C116.025 277.095 107.38 283.92 93.275 283.01C83.0375 282.327 77.805 277.55 75.53 265.947C78.26 265.947 80.7625 265.72 83.265 265.72H91.2275C91.455 265.72 91.455 171.99 91.455 171.99V171.99ZM50.7325 199.972H75.7575C70.7525 224.77 76.44 250.705 56.875 273.91C52.0975 266.175 48.0025 259.35 43.9075 252.297C43.4525 251.615 43.4525 250.705 43.4525 249.795C45.955 233.415 48.23 217.035 50.7325 199.972V199.972ZM149.468 273.682C131.04 250.932 136.045 224.997 131.723 199.972H156.293L159.705 236.827C159.705 237.51 159.478 238.192 159.705 238.875C165.848 252.07 156.293 261.852 149.468 273.682V273.682ZM161.98 283.237C166.985 275.047 170.398 268.905 174.265 262.99C174.72 262.08 176.54 261.17 177.678 261.17C183.365 261.397 189.053 262.08 194.74 262.307C200.428 262.535 206.115 262.307 212.713 262.307C208.845 269.132 205.205 275.047 201.565 281.19C200.883 282.1 199.29 283.237 198.153 283.237H161.98V283.237ZM387.205 199.29C387.205 195.195 386.75 191.327 387.205 187.46C387.888 182 393.575 178.132 399.718 178.587C405.633 179.042 410.41 183.137 411.093 188.37C411.548 193.602 407.225 198.835 400.855 199.29C396.533 199.517 391.983 199.29 387.205 199.29Z" fill="white"/>
</g>
<defs>
<clipPath id="clip0_4_35">
<rect width="455" height="455" fill="white"/>
</clipPath>
</defs>
</svg>
